<svg width="30" height="30" viewBox="0 0 30 30" fill="none" xmlns="http://www.w3.org/2000/svg">
    <g clip-path="url(#0baikn50oa)">
        <circle cx="15" cy="15" r="15" fill="#FFE9EA"/>
        <path d="M13.969 9.719H11.583a3.6 3.6 0 0 0-2.516 1.02 3.615 3.615 0 0 0-1.123 2.535 3.633 3.633 0 0 0 .907 2.638c.637.73 1.525 1.17 2.545 1.235h2.573V9.72zM20.89 7.81a.64.64 0 0 0-.551-.085l-5.155 1.75v7.905l5.164 1.722a.713.713 0 0 0 .196.028.608.608 0 0 0 .608-.608V8.305a.608.608 0 0 0-.252-.495h-.01zM15.083 18.299a.617.617 0 0 0-.43-.178h-3.135a.617.617 0 0 0-.43.178.617.617 0 0 0-.178.43v2.966c0 .337.28.608.618.608h3.124a.607.607 0 0 0 .609-.608v-2.966a.617.617 0 0 0-.178-.43z" fill="#E62A2F"/>
    </g>
    <defs>
        <clipPath id="0baikn50oa">
            <path fill="#fff" d="M0 0h30v30H0z"/>
        </clipPath>
    </defs>
</svg>
