<svg width="20" height="20" viewBox="0 0 20 20" fill="none" xmlns="http://www.w3.org/2000/svg">
    <path d="M18.701 10.291a8.802 8.802 0 0 1-1.858 5.43c-.26.338-.548.654-.86.945a8.137 8.137 0 0 1-1.55 1.177 6.635 6.635 0 0 1-.853.459c-.5.226-1.019.405-1.551.536-.278.063-.566.12-.852.162-.39.051-.782.077-1.174.078a3.499 3.499 0 0 1-.385-.014 8.5 8.5 0 0 1-.852-.07 8.31 8.31 0 0 1-1.551-.381 6.93 6.93 0 0 1-.852-.34 8.73 8.73 0 0 1-1.774-1.107 8.794 8.794 0 0 1 5.414-15.654 8.736 8.736 0 0 1 8.698 8.777" fill="#FF8527"/>
    <path d="M18.702 9.619a8.697 8.697 0 1 0-17.393 0 8.697 8.697 0 0 0 17.393 0z" fill="url(#36gx0o7kra)"/>
    <path d="M3.139 9.62a6.861 6.861 0 1 0 13.722-.002 6.861 6.861 0 0 0-13.722.001z" fill="url(#n2elm4kcib)"/>
    <path d="M15.377 9.109a5.378 5.378 0 0 0-5.379 5.377 5.377 5.377 0 0 0-5.377-5.377A5.377 5.377 0 0 0 9.998 3.73a5.378 5.378 0 0 0 5.379 5.378z" fill="#fff"/>
    <defs>
        <linearGradient id="36gx0o7kra" x1="10.005" y1=".922" x2="10.005" y2="18.315" gradientUnits="userSpaceOnUse">
            <stop stop-color="#FEF887"/>
            <stop offset="1" stop-color="#FFA621"/>
        </linearGradient>
        <linearGradient id="n2elm4kcib" x1="10" y1="2.758" x2="10" y2="16.48" gradientUnits="userSpaceOnUse">
            <stop stop-color="#FC0"/>
            <stop offset="1" stop-color="#FF6F00"/>
        </linearGradient>
    </defs>
</svg>
