<svg viewBox="0 0 512 512" xmlns="http://www.w3.org/2000/svg"><g id="a"/><g id="b"/><g id="c"><g><path d="M256.02539,168.05066c41.98755,0,76.02527-34.03772,76.02527-76.02527s-34.03772-76.02539-76.02527-76.02539-76.02539,34.0376-76.02539,76.02539,34.0376,76.02527,76.02539,76.02527Zm9.50317-19.7948v-37.22424l25.78394,25.78479c-7.34814,5.79688-16.15698,9.82446-25.78394,11.43945Zm47.51575-56.23047c0,10.87439-3.04419,21.03809-8.3269,29.68481l-39.18884-39.18799-.00989-46.72913c26.97205,4.52002,47.52563,27.97583,47.52563,56.2323Zm-92.30591,44.79126l25.78381-25.78491,.00562,37.2251c-9.62903-1.6145-18.43994-5.64209-25.78943-11.44019Zm25.78357-101.02197l.00024,46.72754-39.18884,39.18799c-5.28284-8.64673-8.32703-18.8103-8.32703-29.68481,0-28.25293,20.54834-51.7063,47.51562-56.23071Z"/><path d="M472.1001,259.57764l-26.3501-13.1748c9.33691-15.47314,14.25-33.09473,14.25-51.24707v-43.15576c0-2.20898-1.79102-4-4-4h-32c-19.85059,0-36,16.14941-36,36v11.15576c0,18.15234,4.91309,35.77393,14.25,51.24707l-26.3501,13.1748c-3.67432,1.83716-6.92114,4.2395-9.6825,7.05872l-8.46741-4.23352c9.33691-15.47314,14.25-33.09473,14.25-51.24707v-27.15576c0-2.20898-1.79102-4-4-4h-24c-15.43945,0-28,12.56055-28,28v3.15576c0,18.15234,4.91309,35.77393,14.25,51.24707l-26.25024,13.12488-25.48267-12.74109c8.73145-10.49756,13.48291-23.59033,13.48291-37.41406v-41.37256c0-2.20898-1.79102-4-4-4h-32c-19.85059,0-36,16.14941-36,36v9.37256c0,13.82373,4.75146,26.9165,13.48291,37.41406l-25.48291,12.74097-26.25-13.12476c9.33691-15.47314,14.25-33.09473,14.25-51.24707v-27.15576c0-2.20898-1.79102-4-4-4h-24c-15.43945,0-28,12.56055-28,28v3.15576c0,18.15234,4.91309,35.77393,14.25,51.24707l-8.46729,4.23364c-2.76123-2.81934-6.0083-5.22156-9.68262-7.05884l-26.3501-13.1748c9.33691-15.47314,14.25-33.09473,14.25-51.24707v-43.15576c0-2.20898-1.79102-4-4-4h-32c-19.85059,0-36,16.14941-36,36v11.15576c0,18.15234,4.91309,35.77393,14.25,51.24707l-26.3501,13.1748c-12.2749,6.1377-19.8999,18.47607-19.8999,32.19922v108.22314c0,11.02783,8.97217,20,20,20h4v76h40v-72h8v72h40v-76h4c11.02783,0,20-8.97217,20-20v-108.22314c0-6.76367-1.85962-13.18652-5.20776-18.70081l10.99683-5.49841c1.02588-.51318,1.78223-1.44189,2.07715-2.55078,.29443-1.10889,.09863-2.29102-.53809-3.24561-10.02783-15.04199-15.32812-32.54834-15.32812-50.62549v-3.15576c0-11.02783,8.97217-20,20-20h20v23.15576c0,18.07715-5.30029,35.5835-15.32812,50.62549-.63672,.95459-.83252,2.13672-.53809,3.24561,.29492,1.10889,1.05127,2.0376,2.07715,2.55078l26.13281,13.06616c-7.75928,6.72961-12.34375,16.50928-12.34375,27.13306v36.22314h8v-36.22314c0-10.67383,5.93066-20.27002,15.47803-25.04395l1.15247-.57617,16.04138,24.06201c.66455,.99707,1.74121,1.64355,2.93408,1.76172,.13184,.01318,.26318,.01953,.39404,.01953,1.05566,0,2.07471-.41797,2.82861-1.17139l8.07642-8.07642-4.45679,44.56641-15.85168,12.6814h-54.59656c-2.20898,0-4,1.79102-4,4v32c0,2.20898,1.79102,4,4,4h4v96c0,2.20898,1.79102,4,4,4h160c2.20898,0,4-1.79102,4-4v-96h4c2.20898,0,4-1.79102,4-4v-32c0-2.20898-1.79102-4-4-4h-53.99988l-17.51599-23.35461-3.38916-33.89319,8.07642,8.07642c.75391,.75342,1.77295,1.17139,2.82861,1.17139,.13086,0,.2627-.00635,.39404-.01953,1.19287-.11816,2.26953-.76465,2.93408-1.76172l16.04138-24.06201,1.15247,.57617c9.54736,4.77393,15.47803,14.37012,15.47803,25.04395v36.22314h8v-36.22314c0-10.62378-4.58447-20.40332-12.34387-27.13306l26.13293-13.06616c1.02588-.51318,1.78223-1.44189,2.07715-2.55078,.29443-1.10889,.09863-2.29102-.53809-3.24561-10.02783-15.04199-15.32812-32.54834-15.32812-50.62549v-3.15576c0-11.02783,8.97217-20,20-20h20v23.15576c0,18.07715-5.30029,35.5835-15.32812,50.62549-.63672,.95459-.83252,2.13672-.53809,3.24561,.29492,1.10889,1.05127,2.0376,2.07764,2.55078l10.99658,5.49805c-3.34839,5.5144-5.20801,11.9375-5.20801,18.70117v108.22314c0,11.02783,8.97217,20,20,20h4v76h40v-72h8v72h40v-76h4c11.02783,0,20-8.97217,20-20v-108.22314c0-13.72314-7.625-26.06152-19.8999-32.19922Zm-347.94153,2.97363l-12.78015,19.17041-17.72119-17.72168,11.13281-11.13281,19.36853,9.68408ZM60,195.15576v-.03284l56-14v14.03284c0,17.95544-5.23438,35.34497-15.13159,50.3186l-12.86841,12.8689-12.86841-12.8689c-9.89722-14.97363-15.13159-32.36316-15.13159-50.3186Zm11.20996,57.71143l11.13281,11.13281-17.72119,17.72119-12.77991-19.17004,19.36829-9.68396Zm-27.73193,13.86572l1.15271-.57642,16.04114,24.06226c.66455,.99707,1.74121,1.64355,2.93408,1.76172,.13184,.01318,.26318,.01953,.39453,.01953,1.05518,0,2.07422-.41797,2.82812-1.17139l8.07642-8.07642-6.88501,68.84985c-.11963,1.19385,.30322,2.37793,1.15137,3.22656l16,16c.78125,.78076,1.80469,1.17139,2.82861,1.17139s2.04736-.39062,2.82861-1.17139l16-16c.84814-.84863,1.271-2.03271,1.15137-3.22656l-6.88501-68.84985,8.07642,8.07642c.75391,.75342,1.77295,1.17139,2.82861,1.17139,.13086,0,.2627-.00635,.39404-.01953,1.19287-.11816,2.26953-.76465,2.93408-1.76172l16.04138-24.06201,1.15247,.57617c9.54736,4.77393,15.47803,14.37012,15.47803,25.04395v88.22314h-16v-68h-8v76H52v-76h-8v68H28v-88.22314c0-10.67383,5.93066-20.27002,15.47803-25.04395Zm-3.47803,145.26709c-6.6167,0-12-5.3833-12-12v-12h16v24h-4Zm96,0h-4v-24h16v12c0,6.6167-5.3833,12-12,12Zm92-186.62744v-5.84131l56-7v12.84131c0,13.52295-5.26611,26.23682-14.82861,35.79883l-13.17139,13.17188-13.17139-13.17188c-9.5625-9.56201-14.82861-22.27588-14.82861-35.79883Zm4.62158,72.34912l-12.78015-19.17041,19.36853-9.68408,11.13281,11.13281-17.72119,17.72168Zm99.37842,190.27832h-16v-72c0-2.20898-1.79102-4-4-4h-112c-2.20898,0-4,1.79102-4,4v72h-16v-92h152v92Zm-96.59656-132l27.87292-22.29834,16.72363,22.29834h-44.59656Zm43.97498-58.27832l-17.72119-17.72168,11.13281-11.13281,19.36853,9.68408-12.78015,19.17041Zm180.78015-35.17041l-12.78015,19.17041-17.72119-17.72168,11.13281-11.13281,19.36853,9.68408Zm-64.15857-67.39551v-.03284l56-14v14.03284c0,17.95544-5.23438,35.34497-15.13159,50.3186l-12.86841,12.8689-12.86841-12.8689c-9.89722-14.97363-15.13159-32.36316-15.13159-50.3186Zm11.20996,57.71143l11.13281,11.13281-17.72119,17.72168-12.78015-19.17041,19.36853-9.68408Zm-27.73193,13.86572l1.15247-.57617,16.04138,24.06201c.66455,.99707,1.74121,1.64355,2.93408,1.76172,.13184,.01318,.26318,.01953,.39404,.01953,1.05566,0,2.07471-.41797,2.82861-1.17139l8.07642-8.07642-6.88501,68.84985c-.11963,1.19385,.30322,2.37793,1.15137,3.22656l16,16c.78125,.78076,1.80469,1.17139,2.82861,1.17139s2.04736-.39062,2.82861-1.17139l16-16c.84814-.84863,1.271-2.03271,1.15137-3.22656l-6.88501-68.84985,8.07642,8.07642c.75391,.75342,1.77295,1.17139,2.82861,1.17139,.13086,0,.2627-.00635,.39404-.01953,1.19287-.11816,2.26953-.76465,2.93408-1.76172l16.04138-24.06201,1.15247,.57617c9.54736,4.77393,15.47803,14.37012,15.47803,25.04395v88.22314h-16v-68h-8v76h-72v-76h-8v68h-16v-88.22314c0-10.67383,5.93066-20.27002,15.47803-25.04395Zm-3.47803,145.26709c-6.6167,0-12-5.3833-12-12v-12h16v24h-4Zm96,0h-4v-24h16v12c0,6.6167-5.3833,12-12,12Z"/></g></g><g id="d"/></svg>