<svg xmlns="http://www.w3.org/2000/svg" width="24" height="24" viewBox="0 0 24 24">
    <defs>
        <linearGradient id="ew06i6z4ea" x1=".5" x2=".5" y2="1" gradientUnits="objectBoundingBox">
            <stop offset="0" stop-color="#ff006f"/>
            <stop offset="1" stop-color="#0075ff"/>
        </linearGradient>
    </defs>
    <path data-name="패스 43228" d="M134.381 614.308h-.953v-1.282a2.623 2.623 0 0 0-2.6-2.651h-2.7a2.623 2.623 0 0 0-2.6 2.651v1.282h-.953a2.758 2.758 0 0 0-2.729 2.787v1.845a4.1 4.1 0 0 0 6.97 3.011l-2.968-1.585a.088.088 0 0 1-.021-.139l.272-.278a.745.745 0 0 1 .713-.2l3.349.833 1.058-1.081c.729-.745 1.443-.769 1.589-.62s.122.878-.607 1.623l-1.058 1.081.816 3.42a.784.784 0 0 1-.2.728l-.272.278a.085.085 0 0 1-.136-.021l-1.552-3.032-6.183 6.316a1.4 1.4 0 0 0 .959 2.381h.014a.656.656 0 0 1 .608.464 1.338 1.338 0 0 0 2.536 0 .656.656 0 0 1 .607-.464h2.263a.656.656 0 0 1 .608.464 1.338 1.338 0 0 0 2.536 0 .656.656 0 0 1 .608-.464h.014a2.758 2.758 0 0 0 2.728-2.787V617.1a2.758 2.758 0 0 0-2.716-2.792zm-2.39 0h-5.014v-1.282a1.172 1.172 0 0 1 1.158-1.183h2.7a1.173 1.173 0 0 1 1.158 1.183z" transform="translate(-117.27 -609.907)" style="fill:url(#ew06i6z4ea)"/>
    <path data-name="사각형 146138" style="fill:none" d="M0 0h24v24H0z"/>
</svg>
