<svg xmlns="http://www.w3.org/2000/svg" width="24" height="24" viewBox="0 0 24 24">
    <path data-name="사각형 146138" style="fill:none" d="M0 0h24v24H0z"/>
    <g data-name="그룹 82851">
        <g data-name="그룹 82849">
            <path data-name="패스 43301" d="M5.444 4.354V2.62A1.62 1.62 0 0 1 7.064 1h10.37a1.62 1.62 0 0 1 1.62 1.62v15.716a1.62 1.62 0 0 1-1.62 1.62H7.064a1.62 1.62 0 0 1-1.62-1.62v-1.9" transform="translate(1.166 1.522)" style="stroke-miterlimit:10;stroke:#91949b;stroke-linecap:round;stroke-width:1.5px;fill:none"/>
            <path data-name="빼기 2" d="M7.136 18.956a1.632 1.632 0 0 1-.739-.178l-5.755-2.9A1.2 1.2 0 0 1 0 14.809V4.147a1.2 1.2 0 0 1 .643-1.073L6.4.178A1.632 1.632 0 0 1 7.136 0a1.761 1.761 0 0 1 1.712 1.8v15.354a1.761 1.761 0 0 1-1.712 1.802zM3.176 8.44a1.038 1.038 0 1 0 1.038 1.037A1.04 1.04 0 0 0 3.176 8.44z" transform="translate(11.374 2.522)" style="stroke:transparent;fill:#91949b;stroke-miterlimit:10"/>
            <g data-name="그룹 82852">
                <path data-name="패스 43303" d="M6.225 13.6H1.648a.5.5 0 0 1-.537-.543v-1.6a.5.5 0 0 1 .537-.543h4.577a.626.626 0 0 1 .685.543v1.6a.626.626 0 0 1-.685.543" transform="translate(.29 -.261)" style="fill:#91949b"/>
                <path data-name="패스 43304" d="M4.78 15.708V9.58a.471.471 0 0 1 .776-.359l3.478 2.958a.472.472 0 0 1 .012.708l-3.478 3.17a.471.471 0 0 1-.789-.348" transform="translate(1.068 -.644)" style="fill:#91949b"/>
            </g>
        </g>
    </g>
</svg>
